<svg width="1437" height="282" viewBox="0 0 1437 282" fill="none" xmlns="http://www.w3.org/2000/svg">
<g clip-path="url(#clip0_65_41)">
<path d="M1394.68 166.622L1351.11 166.622L1335.68 151.493L1320.4 136.365L1210.12 136.365L1099.99 136.365L1081.84 118.211L1063.68 100.056L1038.72 100.056L1013.61 100.056L1001.96 87.9534L990.314 75.8506L959.605 75.8506L928.895 75.8506L925.567 71.312C922.995 67.9837 920.878 66.7734 917.549 66.7734C911.952 66.7734 905.599 72.6736 905.599 78.1199C905.599 83.1123 911.952 89.4663 916.944 89.4663C920.878 89.4663 928.29 83.5662 928.29 80.3892C928.29 79.4814 938.426 78.8763 958.243 78.8763L988.196 78.8763L999.844 90.9792L1011.49 103.082L1036.15 103.082L1060.66 103.082L1079.57 121.993L1098.48 140.903L1208.91 140.903L1319.34 140.903L1334.32 156.032L1349.45 171.161L1393.77 171.161C1432.2 171.161 1438.1 170.858 1438.1 168.891C1438.1 166.925 1432.2 166.622 1394.68 166.622ZM920.726 83.4149C914.221 86.8944 908.17 80.843 911.65 74.3377C913.465 71.0094 919.062 70.253 921.936 73.1274C924.811 76.0019 924.054 81.5994 920.726 83.4149Z" fill="black"/>
<path d="M1393.77 186.289L1349.6 186.289L1335.23 171.917L1320.86 157.545L1207.4 157.545L1093.94 157.545L1077.15 140.903L1060.2 124.262L953.856 124.262L847.357 124.262L817.858 94.7611L788.358 65.2604L717.863 65.2604L647.217 65.2604L629.517 47.7112C612.725 30.9185 611.969 29.8595 612.725 25.0184C613.482 21.085 613.028 19.4208 610.305 17.0002C608.49 15.1848 605.767 13.8232 604.254 13.8232C600.623 13.8232 595.48 19.1182 595.48 22.9004C595.48 26.9851 600.774 31.9775 605.01 31.9775C607.279 31.9775 613.936 37.5751 626.492 50.1318L644.645 68.2861L714.989 68.2861L785.333 68.2861L815.588 98.5432L845.844 128.8L952.494 128.8L1059.15 128.8L1075.79 145.442L1092.43 162.083L1205.88 162.083L1319.34 162.083L1333.71 176.455L1348.08 190.828L1393.01 190.828C1432.04 190.828 1438.1 190.525 1438.1 188.558C1438.1 186.592 1432.2 186.289 1393.77 186.289Z" fill="black"/>
<path d="M1394.68 205.956L1351.11 205.956L1337.5 192.341L1323.73 178.725L1207.25 178.725L1090.76 178.725L1075.79 163.596L1060.66 148.468L950.225 148.468L839.793 148.468L812.563 121.236L785.333 94.0049L711.207 94.0049L637.081 94.0049L621.197 78.1199L605.313 62.2349L551.004 62.2349L496.544 62.2349L474.307 84.4739L452.069 106.713L443.9 106.259C430.739 105.654 422.57 110.192 416.821 121.539C410.77 133.339 414.552 148.77 425.595 157.091C430.436 160.873 432.403 161.327 442.084 161.327C452.069 161.327 453.582 160.873 458.876 156.637C462.053 154.065 465.835 149.678 467.197 146.804C470.525 140.45 470.676 128.044 467.65 122.144L465.23 117.605L484.593 98.2409L503.957 78.8763L550.853 78.8763L597.749 78.8763L613.633 94.7613L629.517 110.646L704.4 110.646L779.282 110.646L806.512 137.878L833.742 165.109L943.872 165.109L1054 165.109L1068.98 180.238L1084.11 195.366L1200.14 195.366L1316.32 195.366L1329.93 208.982L1343.55 222.598L1390.75 222.598L1438.1 222.598L1438.1 214.277L1438.1 205.956L1394.68 205.956ZM449.497 141.66C447.53 143.778 444.051 145.442 441.933 145.442C436.941 145.442 430.587 139.088 430.587 134.096C430.587 129.103 436.941 122.749 441.933 122.749C446.925 122.749 453.279 129.103 453.279 134.096C453.279 136.214 451.615 139.693 449.497 141.66Z" fill="black"/>
<path d="M1393.17 246.803C1368.36 246.803 1346.42 246.954 1344.61 246.803C1342.03 246.803 1336.13 241.811 1324.94 230.616C1316.17 221.538 1307.24 213.066 1305.12 211.554C1301.49 209.133 1293.47 208.982 1191.51 208.982L1081.99 209.133L1069.73 196.879L1057.63 184.776L941.149 184.776L824.665 184.776L798.948 159.057L773.231 133.339L711.207 133.339L649.183 133.339L635.568 146.955L621.953 160.57L567.342 160.57L512.58 160.57L511.672 156.788C510.462 151.947 502.444 146.955 496.09 146.955C489.737 146.955 482.475 153.157 481.114 159.663C479.45 169.042 487.77 178.725 497.754 178.725C501.99 178.725 510.159 172.371 511.521 168.135C512.428 165.26 514.244 165.109 567.947 165.109L623.466 165.109L637.081 151.493L650.696 137.877L711.207 137.877L771.718 137.877L796.679 162.84L821.791 187.802L938.123 187.802L1054.61 187.802L1067.47 200.661L1080.32 213.52L1191.51 213.52L1302.7 213.52L1321.61 232.431L1340.52 251.342L1389.23 251.342C1432.2 251.342 1438.1 251.039 1438.1 249.072C1438.1 246.954 1432.65 246.652 1393.17 246.803ZM503.806 171.009C498.511 175.245 493.367 174.942 488.829 170.404C484.291 165.865 483.988 160.722 488.224 155.427C492.157 150.434 500.175 149.98 504.713 154.519C509.252 159.057 508.798 167.076 503.806 171.009Z" fill="black"/>
<path d="M1348.39 302.779L1258.83 302.779L1243.7 287.651L1228.58 272.522L1153.69 272.522L1078.81 272.522L1058.39 252.098L1037.97 231.675L950.074 231.675L862.333 231.826L849.626 244.534L836.767 257.393L796.981 257.393L757.044 257.393L754.018 253.611C748.572 246.652 738.891 249.527 738.891 258.15C738.891 260.268 739.647 262.991 740.706 264.201C743.126 267.227 750.388 267.076 753.413 264.05C755.531 262.083 761.582 261.781 796.981 261.932L838.28 262.083L851.138 249.073L863.997 236.213L950.225 236.213L1036.45 236.213L1056.88 256.637L1077.3 277.061L1152.18 277.061L1227.06 277.061L1242.19 292.189L1257.32 307.318L1347.63 307.318C1427.05 307.318 1438.1 307.015 1438.1 305.048C1438.1 303.082 1427.05 302.779 1348.39 302.779Z" fill="black"/>
<path d="M1344.45 323.959L1250.96 323.959L1236.59 310.343L1222.22 296.727L1146.73 296.727L1071.1 296.727L1052.34 277.817L1033.43 258.906L948.713 258.906L863.997 258.906L851.139 271.765L838.28 284.625L822.85 284.625C813.471 284.625 807.268 284.019 807.268 283.112C807.268 279.935 801.066 275.547 796.679 275.547C786.543 275.547 782.156 288.861 790.022 295.063C795.468 299.451 799.099 298.997 804.545 293.702C808.932 289.314 809.386 289.163 824.362 289.163L839.793 289.163L853.408 275.547L867.023 261.932L948.561 261.932L1030.1 261.932L1049.31 280.842L1068.37 299.753L1144.47 299.753L1220.41 299.753L1235.08 314.125L1249.75 328.497L1344 328.497C1426.6 328.497 1438.1 328.195 1438.1 326.228C1438.1 324.261 1426.75 323.959 1344.45 323.959ZM800.461 292.189C797.738 294.458 792.594 292.794 790.476 288.861C787.451 283.263 796.225 277.212 800.914 281.901C803.335 284.322 803.184 289.92 800.461 292.189Z" fill="black"/>
<path d="M1341.43 352.703L1244.91 352.703L1231.45 339.087L1217.99 325.472L1139.32 325.472L1060.66 325.472L1038.72 303.535L1016.79 281.599L982.447 281.599C960.512 281.599 947.956 280.994 947.956 280.086C947.956 276.758 941.754 272.522 936.762 272.522C932.98 272.522 930.711 273.581 928.441 276.455C926.626 278.724 925.265 281.448 925.265 282.507C925.265 286.743 928.895 292.038 932.98 293.702C938.274 295.971 942.813 294.609 945.838 289.768L948.259 286.137L981.691 286.137L1015.27 286.137L1026.17 297.03C1032.22 303.081 1037.21 308.528 1037.21 309.133C1037.21 309.889 1007.11 310.343 970.194 310.343L903.329 310.343L889.714 323.959L876.099 337.575L784.425 337.575C703.643 337.575 692.449 337.272 691.692 335.305C689.726 330.01 680.195 330.01 676.867 335.154C674.9 338.18 675.657 343.172 678.38 345.593C682.162 349.072 687.154 348.77 690.785 345.139C693.659 342.264 695.777 342.113 759.162 342.113L824.514 342.113L818.614 348.165L812.714 354.216L761.734 354.216L710.602 354.216L700.769 364.05L690.936 373.883L674.144 373.883L657.352 373.883L652.36 368.588C646.309 362.234 640.863 361.629 635.568 367.075C630.727 371.765 630.727 377.514 635.568 382.204C640.56 387.348 646.158 387.045 651.452 381.447L655.688 376.909L674.447 376.909L693.205 376.909L702.13 367.832L711.056 358.755L762.641 358.755L814.227 358.755L822.396 350.434L830.565 342.113L854.164 342.113L877.612 342.113L891.227 328.497L904.842 314.882L974.278 314.882L1043.87 314.882L1051.28 322.143L1058.54 329.254L1097.72 329.254C1119.35 329.254 1137.05 329.556 1137.05 330.01C1137.05 330.313 1132.06 335.608 1126.16 341.659L1115.27 352.703L1073.52 352.703L1031.76 352.703L1023.59 361.024L1015.43 369.345L1005.59 369.345L995.911 369.345L986.381 360.267L977.001 351.19L930.257 351.19L883.663 351.19L873.83 361.024C864.602 370.404 863.695 370.857 856.736 370.857C851.29 370.857 849.323 370.252 848.567 368.286C846.6 362.688 843.121 360.267 837.372 360.267C830.867 360.267 826.934 364.352 826.934 370.857C826.934 380.994 839.188 385.532 846.449 377.968C849.021 375.093 851.441 374.337 858.4 374.034C866.72 373.732 867.325 373.581 876.251 364.655L885.479 355.426L930.711 355.578L975.943 355.729L982.75 362.537L989.558 369.345L952.343 369.345L915.28 369.345L902.119 382.204L888.958 394.912L849.928 395.063C812.26 395.214 811.05 395.214 808.932 392.189C805.302 386.742 794.107 389.163 793.502 395.517C792.594 404.594 802.579 409.435 808.327 402.627C810.899 399.753 812.865 399.602 850.534 399.602L890.017 399.602L902.724 386.742L915.432 373.883L965.656 373.883L1015.88 373.883L1024.35 365.562L1032.67 357.242L1074.42 357.242L1116.03 357.242L1129.94 343.626L1143.86 330.01L1180.17 330.01L1216.32 330.01L1222.83 336.364C1226.46 339.844 1229.33 343.323 1229.33 343.929C1229.33 344.534 1217.23 345.139 1202.4 345.139L1175.63 345.139L1160.5 360.267L1145.37 375.396L1104.53 375.396L1063.68 375.396L1041.75 397.332L1019.96 419.269L972.917 419.269L926.021 419.269L908.624 436.667L891.227 454.065L823.606 454.065L755.834 454.065L753.716 449.072C749.48 438.633 738.588 434.549 728.604 439.692C722.855 442.718 721.04 446.198 721.04 454.518C721.04 472.37 743.732 477.968 752.96 462.385L756.136 457.09L825.27 457.09L894.253 457.09L910.893 440.449L927.534 423.807L974.43 423.807L1021.33 423.807L1043.26 401.871L1065.2 379.935L1106.04 379.935L1146.89 379.783L1162.62 364.05L1178.5 348.165L1206.64 348.165C1234.78 348.165 1234.93 348.165 1238.41 351.947L1241.89 355.729L1340.07 356.031C1417.67 356.334 1438.1 356.031 1438.1 354.67C1438.1 353.157 1417.82 352.703 1341.43 352.703ZM940.544 289.163C934.644 292.189 928.139 285.835 931.316 280.086C933.131 276.758 938.728 276.001 941.603 278.876C944.326 281.599 943.72 287.348 940.544 289.163ZM842.062 375.396C837.524 379.935 832.229 377.363 832.229 370.706C832.229 366.168 832.683 365.562 836.767 365.109C839.642 364.655 841.759 365.411 843.121 367.227C845.693 370.857 845.541 371.916 842.062 375.396ZM744.488 461.024C739.647 465.865 733.747 465.411 729.663 459.813C725.881 454.821 727.091 449.072 732.537 445.441C737.378 442.264 743.58 444.08 746.303 449.526C749.026 454.972 748.724 456.788 744.488 461.024ZM647.065 379.935C645.401 380.691 642.981 381.447 641.771 381.447C638.745 381.447 635.871 376.001 637.081 372.37C638.291 368.588 644.645 366.773 647.67 369.345C650.847 372.068 650.545 377.968 647.065 379.935Z" fill="black"/>
<path d="M1374.86 278.119C1370.93 274.489 1366.54 274.942 1362.61 279.178C1359.43 282.507 1358.07 282.809 1341.73 282.961L1324.18 283.263L1312.38 271.463C1302.7 261.781 1300.43 258.755 1300.43 254.973C1300.43 246.652 1291.51 242.265 1286.36 248.014C1280.46 254.519 1286.51 265.26 1294.38 262.688C1296.95 261.781 1299.83 263.899 1309.51 273.883L1321.46 286.138L1341.13 286.138C1357.16 286.138 1360.79 286.591 1361.55 288.407C1362 289.617 1364.12 291.433 1366.09 292.492C1374.56 296.274 1381.82 284.322 1374.86 278.119Z" fill="black"/>
<path d="M1245.67 246.198C1240.98 242.87 1237.96 243.172 1233.87 247.56L1230.39 251.342L1159.14 251.342L1087.89 251.342L1065.95 229.405L1043.87 207.318L971.253 207.318L898.64 207.469L893.043 203.384L887.445 199.3L883.209 202.477C878.066 206.259 877.31 210.949 881.243 214.882C885.63 219.269 891.378 218.967 894.404 214.277L896.824 210.495L969.135 210.495L1041.29 210.495L1063.23 232.431L1085.32 254.368L1157.48 254.368L1229.63 254.368L1234.17 258.15C1239.62 262.688 1242.04 262.84 1245.97 258.906C1250.06 254.821 1249.91 249.073 1245.67 246.198Z" fill="black"/>
<path d="M789.115 225.623C787.451 223.959 785.484 222.598 784.576 222.598C783.669 222.598 783.064 215.941 783.064 205.654L783.064 188.71L769.6 175.699C757.952 164.504 756.288 162.235 756.893 158.755C757.8 154.065 753.111 148.468 748.27 148.468C744.488 148.468 739.193 153.611 739.193 157.242C739.345 162.083 743.429 165.714 748.875 165.563C753.262 165.412 755.531 167.076 766.423 177.968L778.828 190.374L778.828 206.107C778.828 221.085 778.677 221.841 774.895 224.564C769.297 228.649 769.297 237.726 774.895 242.113C777.164 243.929 780.038 245.29 781.551 245.29C783.064 245.29 785.938 243.929 788.207 242.113C793.199 238.18 793.653 230.162 789.115 225.623ZM783.82 239.542C778.979 241.66 775.5 238.936 775.5 233.036C775.5 228.346 779.282 226.228 784.576 227.893C789.266 229.405 788.661 237.272 783.82 239.542Z" fill="black"/>
<path d="M751.295 309.284C749.178 304.141 743.126 300.812 737.832 302.023C733.747 302.93 732.386 302.023 721.948 291.433L710.602 279.935L691.541 280.238C673.69 280.389 672.177 280.238 670.211 277.212C667.336 273.127 661.437 273.127 657.503 277.061C654.024 280.54 653.873 282.053 655.991 286.138C659.47 292.643 667.942 292.946 671.572 286.743C672.48 285.079 677.321 284.625 691.238 284.625L709.845 284.625L720.284 295.215C729.965 304.897 730.722 306.107 730.419 311.705C730.117 316.244 730.873 318.513 733.445 320.782C738.286 325.321 745.698 325.018 749.631 320.026C753.111 315.638 753.262 314.277 751.295 309.284ZM746.757 316.546C743.58 322.295 734.655 319.269 734.655 312.31C734.655 307.318 739.95 304.897 744.639 308.074C748.724 310.646 749.026 312.159 746.757 316.546Z" fill="black"/>
<path d="M732.688 177.514L724.671 169.647L683.826 169.647L642.981 169.647L631.786 180.994C621.348 191.584 619.987 192.34 614.087 192.34C609.095 192.34 607.128 193.097 604.708 196.274C602.892 198.543 601.531 201.417 601.531 202.93C601.531 208.074 607.431 213.52 613.028 213.52C620.44 213.52 624.676 208.83 623.92 201.417C623.466 196.122 624.222 194.912 633.753 184.927L644.191 174.186L683.826 174.186L723.46 174.186L729.814 180.691L736.168 187.197L736.168 201.417L736.168 215.638L727.545 224.413L718.922 233.187L684.733 233.187L650.696 233.187L632.089 251.796L613.633 270.252L613.633 318.664L613.633 367.227L602.59 378.119C593.211 387.499 590.941 389.012 586.252 389.012C579.898 389.012 577.326 391.281 577.326 396.576C577.326 401.266 581.562 405.653 585.949 405.653C589.882 405.653 593.967 400.963 593.967 396.425C593.967 393.853 597.598 389.163 606.069 380.691L618.171 368.588L618.171 320.177L618.171 271.765L635.266 254.67L652.209 237.726L686.246 237.726L720.435 237.726L730.57 227.439L740.706 217.151L740.706 201.266L740.706 185.381L732.688 177.514ZM615.6 208.377C613.482 208.982 610.607 208.679 609.246 207.923C605.918 205.805 606.22 199.905 609.851 197.484C612.574 195.669 613.482 195.82 616.356 197.787C621.197 201.115 620.743 207.166 615.6 208.377Z" fill="black"/>
<path d="M604.556 130.313C600.623 126.38 597.597 126.531 593.059 131.07C589.429 134.701 588.521 134.852 571.578 134.852L553.727 134.852L542.986 123.959C533.305 114.126 532.246 112.31 532.397 107.318C532.548 99.7536 528.615 95.5176 521.202 95.5176C511.974 95.5176 507.587 105.351 513.185 113.369C515.151 116.244 516.815 116.849 522.261 116.546C528.766 116.092 529.371 116.395 539.961 126.985L550.853 137.878L569.914 137.878C588.218 137.878 588.975 138.029 592.152 141.66C593.967 143.778 596.841 145.442 598.505 145.442C602.438 145.442 607.582 140.298 607.582 136.365C607.582 134.701 606.22 131.977 604.556 130.313ZM525.892 110.646C521.354 115.185 516.059 112.613 516.059 105.956C516.059 101.418 516.513 100.813 520.597 100.359C523.472 99.9049 525.589 100.661 526.951 102.477C529.523 106.108 529.371 107.167 525.892 110.646Z" fill="black"/>
<path d="M585.042 277.817C581.713 263.747 566.888 255.427 553.727 260.419C549.794 261.932 548.735 261.327 534.212 246.803L519.085 231.675L495.637 231.675L472.189 231.675L454.035 213.521L435.882 195.366L345.116 195.366L254.198 195.366L230.145 219.572L206.092 243.778L71.0009 243.778L-64.0898 243.778L-64.0898 249.073L-64.0898 254.368L74.0264 254.368L211.991 254.368L236.196 230.162L260.4 205.956L344.964 205.956L429.68 205.956L448.741 224.867L467.953 243.778L491.25 243.778L514.546 243.778L527.707 257.091L540.869 270.253L539.205 276.304C535.725 289.315 542.986 302.325 555.845 305.654C570.065 309.587 582.319 300.812 585.647 284.625C585.798 283.415 585.647 280.238 585.042 277.817ZM570.216 291.13C564.619 295.971 554.635 294.458 551.912 288.407C549.189 282.507 549.643 278.876 553.878 274.791C558.417 270.253 563.56 269.95 568.855 274.186C573.696 277.968 574.452 287.197 570.216 291.13Z" fill="black"/>
<path d="M517.269 289.163C515.151 283.566 511.672 281.448 505.167 281.75C498.813 282.204 498.208 281.75 487.619 271.312L476.727 260.419L457.968 260.419C439.966 260.419 439.059 260.268 435.731 256.637C431.495 251.947 427.108 251.796 423.023 256.183C419.241 260.268 419.241 262.083 423.175 267.076C427.108 272.068 431.192 272.068 435.731 267.227C439.059 263.596 439.966 263.445 456.758 263.445L474.306 263.445L485.501 274.489C495.939 284.625 496.544 285.684 495.939 290.979C495.485 295.063 496.09 297.181 498.511 299.602C506.529 307.62 521.051 299.602 517.269 289.163ZM511.823 295.82C510.462 297.635 508.344 298.392 505.47 297.938C501.385 297.484 500.931 296.879 500.931 292.34C500.931 285.684 506.226 283.112 510.764 287.65C514.244 291.13 514.395 292.189 511.823 295.82Z" fill="black"/>
<path d="M427.108 219.874C422.116 215.184 416.065 215.638 410.921 221.085L406.685 225.623L356.915 225.623L307.296 225.623L294.437 238.482L281.579 251.342L264.485 251.342C247.844 251.342 247.39 251.342 246.029 247.56C242.095 237.272 226.665 243.475 230.296 253.914C231.355 257.242 232.868 258.301 236.649 258.603C239.221 258.906 243.003 257.998 244.818 256.788C247.39 254.973 252.382 254.367 266.149 254.367L283.999 254.367L296.707 241.508L309.414 228.649L358.73 228.649L407.896 228.649L409.56 232.28C411.224 235.759 416.67 239.239 420.603 239.239C421.662 239.239 424.385 237.877 426.654 236.062C431.797 231.977 432.1 224.413 427.108 219.874ZM424.234 232.885C419.846 237.272 411.829 231.826 413.493 225.472C414.552 221.841 420.754 220.026 423.78 222.597C426.503 224.867 426.805 230.313 424.234 232.885Z" fill="black"/>
<path d="M352.528 268.286C349.2 263.596 342.09 263.747 338.913 268.74L336.493 272.522L299.127 272.522L261.913 272.522L247.542 286.894L233.17 301.266L169.634 301.266L105.946 301.266L97.9283 293.097C92.4823 287.499 90.0619 284.02 90.667 282.507C92.1798 278.876 88.7004 272.522 84.6159 271.614C79.9263 270.404 73.5726 274.64 73.5726 279.027C73.5726 284.171 79.1699 289.617 83.2544 288.558C85.8261 287.953 88.3978 289.617 94.7515 295.971L102.92 304.292L169.029 304.292L235.137 304.292L249.811 289.92L264.485 275.548L300.338 275.548C334.375 275.548 336.493 275.699 339.065 278.573C342.544 282.355 349.2 282.507 352.377 278.876C355.554 275.396 355.554 272.673 352.528 268.286Z" fill="black"/>
</g>
<defs>
<clipPath id="clip0_65_41">
<rect width="334" height="1448" fill="white" transform="translate(1448) rotate(90)"/>
</clipPath>
</defs>
</svg>
